<svg id="Layer_1" data-name="Layer 1" xmlns="http://www.w3.org/2000/svg" viewBox="0 0 1080 1080"><defs><style>.cls-1{fill:#fff;}</style></defs><path class="cls-1" d="M935.46,587.05A369.14,369.14,0,0,1,901,670.73a21.14,21.14,0,0,0,4.15,25.92l31.8,29.21a21.17,21.17,0,0,1,1.27,29.91L845.54,856.63a21.17,21.17,0,0,1-29.91,1.27l-50.27-46.18-14-12.81a21.18,21.18,0,0,1-6.85-15.59V716.75a21.3,21.3,0,0,1,7.13-15.84,293.48,293.48,0,0,0,65.55-85,275.71,275.71,0,0,0,12.1-223.62,280.09,280.09,0,0,0-18.28-38.73c-29.7-52.27-75.89-95-132-122.17a319.44,319.44,0,0,0-50.53-19.34,331.75,331.75,0,0,0-179.28-1,318.53,318.53,0,0,0-51.76,19.26C341,257.11,294.5,299.54,264.36,351.56a281.7,281.7,0,0,0-19.45,40.77A275.86,275.86,0,0,0,258.1,618.06a293.62,293.62,0,0,0,63.38,81.87,21.31,21.31,0,0,1,7.06,15.78v71.77a21.14,21.14,0,0,1-6.85,15.59L310.9,813l-47.79,43.89a21.18,21.18,0,0,1-29.91-1.28L140.57,754.75a21.17,21.17,0,0,1,1.27-29.91L170.3,698.7a21.12,21.12,0,0,0,4.1-26A369.89,369.89,0,0,1,138.79,587a21.08,21.08,0,0,0-20.37-15.43H63.56a21.17,21.17,0,0,1-21.17-21.17V413.49a21.16,21.16,0,0,1,21.17-21.16h59.93a21.16,21.16,0,0,0,20.16-14.56,371.39,371.39,0,0,1,37-79.88,21.17,21.17,0,0,0-3.72-26.67l-24.75-22.73a21.18,21.18,0,0,1-1.27-29.91l92.64-100.86a21.19,21.19,0,0,1,29.91-1.27L311,151a21.19,21.19,0,0,0,24.27,3.09A423.79,423.79,0,0,1,433,116.93a21.22,21.22,0,0,0,16.24-20.58V45.17A21.17,21.17,0,0,1,470.38,24H607.32a21.17,21.17,0,0,1,21.17,21.17v52a21.21,21.21,0,0,0,16.07,20.54A424.13,424.13,0,0,1,741,155.14a21.19,21.19,0,0,0,24.38-3L817.77,104a21.17,21.17,0,0,1,29.91,1.27l92.64,100.85A21.17,21.17,0,0,1,939.05,236l-40.48,37.18a21.17,21.17,0,0,0-3.77,26.57,371.15,371.15,0,0,1,35.81,78,21.11,21.11,0,0,0,20.1,14.52h65.73a21.16,21.16,0,0,1,21.17,21.16V550.43a21.17,21.17,0,0,1-21.17,21.17h-60.6A21.1,21.1,0,0,0,935.46,587.05Z"/><rect class="cls-1" x="422.78" y="951.42" width="225.25" height="42.52" rx="15.21"/><rect class="cls-1" x="461.85" y="1013.48" width="149.4" height="42.52" rx="15.21"/><path class="cls-1" d="M668.12,360.76c-56.82,1.54-101.69,48.93-101.69,105.77v45.89H507.82V466.53c0-56.84-44.86-104.23-101.68-105.77A104.58,104.58,0,0,0,298.66,465.6c.15,54.16,42.17,99.2,95.39,103.88l58.61.4V872.12l-41.37,56.32H660.67l-39.08-56.32V569.88l59.76-.52c52.67-5.21,94.09-50,94.24-103.76A104.58,104.58,0,0,0,668.12,360.76ZM452.66,513H423.87l-30-.2A53.48,53.48,0,0,1,400.08,406c29.06.78,52,25,52,54.09l.58,8.63ZM566.43,872.12H507.82V568.73h58.61Zm114-357.66-30,.2H622.17l-.52.06V470.44l.58-8.63c0-29.07,22.94-53.31,52-54.09a53.48,53.48,0,0,1,6.18,106.74Z"/></svg>